# Blender 4.1.1
# www.blender.org
mtllib untitled_mirror_applied.mtl
o Plane
v -4.610169 -2.384790 -0.000000
v -3.976184 -2.384791 1.757229
v -4.610169 -0.205751 -0.000000
v -4.610169 -0.205751 0.602224
v 0.000000 -0.205751 0.602224
v -4.610169 -2.099469 -0.000000
v -3.976184 -2.099469 1.757229
v 0.000000 -2.099469 1.757229
v -4.610169 -2.099469 0.602224
v -4.610169 -2.384790 0.602224
v 0.000000 0.965733 0.602224
v -4.610169 0.965733 0.602224
v -4.610169 0.675783 0.000000
v -4.610169 0.720100 0.602224
v 0.000000 0.720099 0.602224
v -4.610169 0.115562 0.000000
v -4.610169 0.071245 0.602224
v 0.000000 0.071245 0.602224
v -2.244224 0.965733 0.602224
v -2.244224 0.720099 0.602224
v -2.244224 0.071245 0.602224
v -2.244224 0.675783 0.427750
v -4.610169 0.675783 0.427750
v -4.610169 0.115562 0.427750
v -2.244224 0.115562 0.427750
v -4.610169 2.103684 0.000000
v -4.610169 2.103684 0.602224
v 0.000000 2.103684 0.602224
v -4.610169 0.965733 0.000000
v -2.244224 2.105475 0.000000
v -4.610169 1.255684 0.000000
v -4.610169 1.211367 0.602224
v 0.000000 1.211368 0.602224
v -4.610169 1.815905 0.000000
v -4.610169 1.860222 0.602224
v 0.000000 1.860222 0.602224
v -2.244224 2.103684 0.602224
v 0.000000 2.105475 0.000000
v -2.244224 1.211367 0.602224
v -2.244224 1.860222 0.602224
v -2.244224 1.255684 0.427750
v -4.610169 1.255684 0.427750
v -4.610169 1.815905 0.427750
v -2.244224 1.815905 0.427750
v -3.182640 -2.384791 1.757229
v -3.182640 -2.384790 -0.000000
v -2.244225 -0.205751 0.602224
v -3.182640 -2.099469 1.757229
v -3.182640 -2.384790 0.602224
v -0.790723 -2.384791 1.757229
v -0.790723 -2.384790 -0.000000
v -0.790723 -2.384790 0.602224
v -0.790723 0.720099 0.602224
v -0.790723 0.071245 0.602224
v -0.790723 2.103684 0.602224
v -0.790723 1.211368 0.602224
v -0.790723 -0.205751 0.602224
v -0.790723 -2.099469 1.757229
v -2.073535 -2.151125 0.602224
v -2.073535 -2.151125 -0.000000
v -2.073535 -2.151125 1.757229
v -3.182640 -2.151125 -0.000000
v -3.182640 -2.151125 1.757229
v -3.182640 -2.151125 0.602224
v -0.790723 -2.151125 0.602224
v 0.000000 -2.151125 0.602224
v 0.000000 -2.151125 -0.000000
v -0.790723 -2.151125 -0.000000
v 0.000000 -2.151125 1.757229
v -0.790723 -2.151125 1.757229
v -0.790723 0.965733 0.602224
v -0.790723 1.860222 0.602224
v -1.683168 -0.205751 0.602224
v -2.073535 -2.099469 1.757229
v -2.073535 -2.384791 1.757229
v -2.073535 -2.384790 -0.000000
v -2.073535 -2.384790 0.602224
v -0.790723 2.105475 0.000000
v 4.610169 -2.384790 -0.000000
v 3.976184 -2.384791 1.757229
v 4.610169 -0.205751 -0.000000
v 4.610169 -0.205751 0.602224
v 4.610169 -2.099469 -0.000000
v 3.976184 -2.099469 1.757229
v 4.610169 -2.099469 0.602224
v 4.610169 -2.384790 0.602224
v 4.610169 0.965733 0.602224
v 4.610169 0.675783 0.000000
v 4.610169 0.720100 0.602224
v 4.610169 0.115562 0.000000
v 4.610169 0.071245 0.602224
v 2.244224 0.965733 0.602224
v 2.244224 0.720099 0.602224
v 2.244224 0.071245 0.602224
v 2.244224 0.675783 0.427750
v 4.610169 0.675783 0.427750
v 4.610169 0.115562 0.427750
v 2.244224 0.115562 0.427750
v 4.610169 2.103684 0.000000
v 4.610169 2.103684 0.602224
v 4.610169 0.965733 0.000000
v 2.244224 2.105475 0.000000
v 4.610169 1.255684 0.000000
v 4.610169 1.211367 0.602224
v 4.610169 1.815905 0.000000
v 4.610169 1.860222 0.602224
v 2.244224 2.103684 0.602224
v 2.244224 1.211367 0.602224
v 2.244224 1.860222 0.602224
v 2.244224 1.255684 0.427750
v 4.610169 1.255684 0.427750
v 4.610169 1.815905 0.427750
v 2.244224 1.815905 0.427750
v 3.182640 -2.384791 1.757229
v 3.182640 -2.384790 -0.000000
v 2.244225 -0.205751 0.602224
v 3.182640 -2.099469 1.757229
v 3.182640 -2.384790 0.602224
v 0.790723 -2.384791 1.757229
v 0.790723 -2.384790 -0.000000
v 0.790723 -2.384790 0.602224
v 0.790723 0.720099 0.602224
v 0.790723 0.071245 0.602224
v 0.790723 2.103684 0.602224
v 0.790723 1.211368 0.602224
v 0.790723 -0.205751 0.602224
v 0.790723 -2.099469 1.757229
v 2.073535 -2.151125 0.602224
v 2.073535 -2.151125 -0.000000
v 2.073535 -2.151125 1.757229
v 3.182640 -2.151125 -0.000000
v 3.182640 -2.151125 1.757229
v 3.182640 -2.151125 0.602224
v 0.790723 -2.151125 0.602224
v 0.790723 -2.151125 -0.000000
v 0.790723 -2.151125 1.757229
v 0.790723 0.965733 0.602224
v 0.790723 1.860222 0.602224
v 1.683168 -0.205751 0.602224
v 2.073535 -2.099469 1.757229
v 2.073535 -2.384791 1.757229
v 2.073535 -2.384790 -0.000000
v 2.073535 -2.384790 0.602224
v 0.790723 2.105475 0.000000
v -3.976184 -2.384790 -1.757229
v -4.610169 -0.205751 -0.602224
v 0.000000 -0.205751 -0.602224
v -3.976184 -2.099469 -1.757229
v 0.000000 -2.099469 -1.757229
v -4.610169 -2.099469 -0.602224
v -4.610169 -2.384790 -0.602225
v 0.000000 0.965733 -0.602224
v -4.610169 0.965734 -0.602224
v -4.610169 0.720100 -0.602224
v 0.000000 0.720100 -0.602224
v -4.610169 0.071245 -0.602224
v 0.000000 0.071245 -0.602224
v -2.244224 0.965734 -0.602224
v -2.244224 0.720100 -0.602224
v -2.244224 0.071245 -0.602224
v -2.244224 0.675783 -0.427750
v -4.610169 0.675783 -0.427750
v -4.610169 0.115562 -0.427750
v -2.244224 0.115562 -0.427750
v -4.610169 2.103684 -0.602223
v 0.000000 2.103684 -0.602223
v -4.610169 1.211368 -0.602224
v 0.000000 1.211368 -0.602224
v -4.610169 1.860222 -0.602223
v 0.000000 1.860222 -0.602223
v -2.244224 2.103684 -0.602223
v -2.244224 1.211368 -0.602224
v -2.244224 1.860222 -0.602223
v -2.244224 1.255684 -0.427750
v -4.610169 1.255684 -0.427750
v -4.610169 1.815905 -0.427750
v -2.244224 1.815905 -0.427750
v -3.182640 -2.384790 -1.757229
v -2.244225 -0.205751 -0.602224
v -3.182640 -2.099469 -1.757229
v -3.182640 -2.384790 -0.602225
v -0.790723 -2.384790 -1.757229
v -0.790723 -2.384790 -0.602225
v -0.790723 0.720100 -0.602224
v -0.790723 0.071245 -0.602224
v -0.790723 2.103684 -0.602223
v -0.790723 1.211368 -0.602224
v -0.790723 -0.205751 -0.602224
v -0.790723 -2.099469 -1.757229
v -2.073535 -2.151125 -0.602224
v -2.073535 -2.151125 -1.757229
v -3.182640 -2.151125 -1.757229
v -3.182640 -2.151125 -0.602224
v -0.790723 -2.151125 -0.602224
v 0.000000 -2.151125 -0.602224
v 0.000000 -2.151125 -1.757229
v -0.790723 -2.151125 -1.757229
v -0.790723 0.965734 -0.602224
v -0.790723 1.860222 -0.602223
v -1.683168 -0.205751 -0.602224
v -2.073535 -2.099469 -1.757229
v -2.073535 -2.384790 -1.757229
v -2.073535 -2.384790 -0.602225
v 3.976184 -2.384790 -1.757229
v 4.610169 -0.205751 -0.602224
v 3.976184 -2.099469 -1.757229
v 4.610169 -2.099469 -0.602224
v 4.610169 -2.384790 -0.602225
v 4.610169 0.965734 -0.602224
v 4.610169 0.720100 -0.602224
v 4.610169 0.071245 -0.602224
v 2.244224 0.965734 -0.602224
v 2.244224 0.720100 -0.602224
v 2.244224 0.071245 -0.602224
v 2.244224 0.675783 -0.427750
v 4.610169 0.675783 -0.427750
v 4.610169 0.115562 -0.427750
v 2.244224 0.115562 -0.427750
v 4.610169 2.103684 -0.602223
v 4.610169 1.211368 -0.602224
v 4.610169 1.860222 -0.602223
v 2.244224 2.103684 -0.602223
v 2.244224 1.211368 -0.602224
v 2.244224 1.860222 -0.602223
v 2.244224 1.255684 -0.427750
v 4.610169 1.255684 -0.427750
v 4.610169 1.815905 -0.427750
v 2.244224 1.815905 -0.427750
v 3.182640 -2.384790 -1.757229
v 2.244225 -0.205751 -0.602224
v 3.182640 -2.099469 -1.757229
v 3.182640 -2.384790 -0.602225
v 0.790723 -2.384790 -1.757229
v 0.790723 -2.384790 -0.602225
v 0.790723 0.720100 -0.602224
v 0.790723 0.071245 -0.602224
v 0.790723 2.103684 -0.602223
v 0.790723 1.211368 -0.602224
v 0.790723 -0.205751 -0.602224
v 0.790723 -2.099469 -1.757229
v 2.073535 -2.151125 -0.602224
v 2.073535 -2.151125 -1.757229
v 3.182640 -2.151125 -1.757229
v 3.182640 -2.151125 -0.602224
v 0.790723 -2.151125 -0.602224
v 0.790723 -2.151125 -1.757229
v 0.790723 0.965734 -0.602224
v 0.790723 1.860222 -0.602223
v 1.683168 -0.205751 -0.602224
v 2.073535 -2.099469 -1.757229
v 2.073535 -2.384790 -1.757229
v 2.073535 -2.384790 -0.602225
vn -1.0000 -0.0000 -0.0000
vn -0.0000 0.5207 0.8537
vn 1.0000 -0.0000 -0.0000
vn -0.8766 -0.0000 0.4812
vn -0.0000 -0.0000 1.0000
vn -0.0000 -1.0000 -0.0000
vn -0.0000 -0.9692 0.2462
vn -0.0000 0.9692 0.2462
vn -0.0000 1.0000 0.0030
vn -0.0004 1.0000 0.0015
vn 0.8766 -0.0000 0.4812
vn 0.0004 1.0000 0.0015
vn -0.0000 0.5207 -0.8537
vn -0.8766 -0.0000 -0.4812
vn -0.0000 -0.0000 -1.0000
vn -0.0000 -0.9692 -0.2462
vn -0.0000 0.9692 -0.2462
vn -0.0000 1.0000 -0.0030
vn -0.0004 1.0000 -0.0015
vn 0.8766 -0.0000 -0.4812
vn 0.0004 1.0000 -0.0015
vt 0.153038 0.904684
vt 0.153038 0.940543
vt 0.821854 0.073510
vt 0.821854 0.031588
vt 0.910338 0.031588
vt 0.910338 0.073510
vt 0.571476 0.069214
vt 0.737199 0.069214
vt 0.737199 0.348894
vt 0.571476 0.348894
vt 0.821854 0.351749
vt 0.910338 0.351749
vt 0.192865 0.904684
vt 0.192865 0.885988
vt 0.056330 0.069214
vt 0.056330 0.027075
vt 0.149962 0.027075
vt 0.149962 0.069214
vt 0.056330 0.348894
vt 0.884703 0.398959
vt 0.910338 0.392447
vt 0.571476 0.485632
vt 0.737199 0.485632
vt 0.737199 0.521909
vt 0.571476 0.521909
vt 0.821854 0.523872
vt 0.821854 0.481270
vt 0.884703 0.481270
vt 0.910338 0.487782
vt 0.910338 0.523872
vt 0.571476 0.389804
vt 0.737199 0.389804
vt 0.217414 0.885988
vt 0.217414 0.904684
vt 0.405753 0.348894
vt 0.405753 0.389804
vt 0.056330 0.389804
vt 0.495715 0.709437
vt 0.241343 0.709437
vt 0.241343 0.728195
vt 0.495715 0.728195
vt 0.056330 0.485632
vt 0.405753 0.485632
vt 0.405753 0.521909
vt 0.056330 0.521909
vt 0.056330 0.396349
vt 0.405753 0.396349
vt 0.405753 0.479087
vt 0.056330 0.479087
vt 0.793845 0.404953
vt 0.793845 0.499504
vt 0.768421 0.493046
vt 0.768421 0.411411
vt 0.821854 0.398959
vt 0.884703 0.648786
vt 0.910338 0.655297
vt 0.910338 0.691068
vt 0.571476 0.558187
vt 0.737199 0.558187
vt 0.910338 0.559963
vt 0.884703 0.566474
vt 0.571476 0.654015
vt 0.737199 0.654015
vt 0.258339 0.870382
vt 0.946143 0.870382
vt 0.946143 0.921104
vt 0.258339 0.921104
vt 0.056330 0.689972
vt 0.056330 0.654015
vt 0.405753 0.654015
vt 0.405753 0.689972
vt 0.949856 0.933668
vt 0.949856 0.984608
vt 0.259092 0.984608
vt 0.259092 0.933668
vt 0.056330 0.558187
vt 0.405753 0.558187
vt 0.056330 0.647470
vt 0.056330 0.564732
vt 0.405753 0.564732
vt 0.405753 0.647470
vt 0.793845 0.665642
vt 0.768421 0.659184
vt 0.768421 0.577549
vt 0.793845 0.571091
vt 0.821854 0.566474
vt 0.821854 0.648786
vt 0.571476 0.689972
vt 0.737199 0.689972
vt 0.074285 0.904684
vt 0.118604 0.904684
vt 0.118604 0.940543
vt 0.093968 0.940543
vt 0.321345 0.027075
vt 0.321345 0.061585
vt 0.321345 0.069214
vt 0.740236 0.859819
vt 0.740236 0.741946
vt 0.959867 0.741946
vt 0.959867 0.859819
vt 0.074285 0.885988
vt 0.118604 0.885988
vt 0.821854 0.691068
vt 0.488614 0.348894
vt 0.192865 0.940543
vt 0.446410 0.027075
vt 0.571476 0.027075
vt 0.571476 0.061585
vt 0.446410 0.069214
vt 0.446410 0.061585
vt 0.153038 0.885988
vt 0.737199 0.027075
vt 0.217414 0.940543
vt 0.520605 0.859819
vt 0.520605 0.741946
vt 0.057519 0.859819
vt 0.057519 0.741946
s 0
usemtl Material.001
f 77/1/1 75/2/1 61/2/1 59/1/1
f 6/3/1 1/4/1 10/5/1 9/6/1
f 58/7/2 8/8/2 5/9/2 57/10/2
f 3/11/1 6/3/1 9/6/1 4/12/1
f 52/13/3 51/14/3 68/14/3 65/13/3
f 9/15/4 10/16/4 2/17/4 7/18/4
f 4/19/4 9/15/4 7/18/4
f 24/20/1 4/12/1 17/21/1
f 53/22/5 15/23/5 11/24/5 71/25/5
f 29/26/1 13/27/1 23/28/1 14/29/1 12/30/1
f 54/31/5 18/32/5 15/23/5 53/22/5
f 68/14/6 67/33/6 66/34/6 65/13/6
f 4/19/5 47/35/5 21/36/5 17/37/5
f 20/38/7 14/39/7 23/40/7 22/41/7
f 14/42/5 20/43/5 19/44/5 12/45/5
f 24/46/5 25/47/5 22/48/5 23/49/5
f 21/50/1 20/51/1 22/52/1 25/53/1
f 13/27/1 16/54/1 24/20/1 23/28/1
f 57/10/5 5/9/5 18/32/5 54/31/5
f 43/55/1 35/56/1 27/57/1
f 56/58/5 71/25/5 11/24/5 33/59/5
f 12/30/1 32/60/1 42/61/1
f 72/62/5 56/58/5 33/59/5 36/63/5
f 17/64/8 21/65/8 25/66/8 24/67/8
f 27/68/5 35/69/5 40/70/5 37/71/5
f 39/72/8 41/73/8 42/74/8 32/75/8
f 32/76/5 12/45/5 19/44/5 39/77/5
f 43/78/5 42/79/5 41/80/5 44/81/5
f 40/82/1 44/83/1 41/84/1 39/85/1
f 31/86/1 42/61/1 43/55/1 34/87/1
f 55/88/5 72/62/5 36/63/5 28/89/5
f 35/39/7 43/40/7 44/41/7 40/38/7
f 10/90/6 49/91/6 45/92/6 2/93/6
f 2/17/5 45/94/5 63/95/5 48/96/5 7/18/5
f 7/18/2 48/96/2 47/35/2 4/19/2
f 78/97/9 55/98/9 28/99/9 38/100/9
f 1/101/6 46/102/6 49/91/6 10/90/6
f 29/26/1 12/30/1 42/61/1 31/86/1
f 34/87/1 43/55/1 27/57/1 26/103/1
f 16/54/1 3/11/1 4/12/1 24/20/1
f 73/104/5 57/10/5 54/31/5
f 77/1/6 52/13/6 50/105/6 75/2/6
f 75/106/5 50/107/5 70/108/5 58/7/5 74/109/5 61/110/5
f 74/109/2 58/7/2 57/10/2 73/104/2
f 76/111/6 51/14/6 52/13/6 77/1/6
f 61/110/5 74/109/5 48/96/5 63/94/5
f 69/112/5 8/8/5 58/7/5 70/107/5
f 76/111/1 77/1/1 59/1/1 60/111/1
f 50/105/3 52/13/3 65/13/3 70/105/3
f 64/91/6 59/1/6 61/2/6 63/92/6
f 62/102/6 60/111/6 59/1/6 64/91/6
f 65/13/6 66/34/6 69/113/6 70/105/6
f 45/92/3 49/91/3 64/91/3 63/92/3
f 48/96/2 74/109/2 73/104/2 47/35/2
f 49/91/3 46/102/3 62/102/3 64/91/3
f 20/43/5 53/22/5 71/25/5 19/44/5
f 21/36/5 54/31/5 53/22/5 20/43/5
f 47/35/5 73/104/5 54/31/5 21/36/5
f 39/77/5 19/44/5 71/25/5 56/58/5
f 40/70/5 39/77/5 56/58/5 72/62/5
f 37/71/5 40/70/5 72/62/5 55/88/5
f 30/114/9 37/115/9 55/98/9 78/97/9
f 26/116/10 27/117/10 37/115/10 30/114/10
f 143/1/3 128/1/3 130/2/3 141/2/3
f 83/3/3 85/6/3 86/5/3 79/4/3
f 127/7/2 126/10/2 5/9/2 8/8/2
f 81/11/3 82/12/3 85/6/3 83/3/3
f 121/13/1 134/13/1 135/14/1 120/14/1
f 85/15/11 84/18/11 80/17/11 86/16/11
f 82/19/11 84/18/11 85/15/11
f 97/20/3 91/21/3 82/12/3
f 122/22/5 137/25/5 11/24/5 15/23/5
f 101/26/3 87/30/3 89/29/3 96/28/3 88/27/3
f 123/31/5 122/22/5 15/23/5 18/32/5
f 135/14/6 134/13/6 66/34/6 67/33/6
f 82/19/5 91/37/5 94/36/5 116/35/5
f 93/38/7 95/41/7 96/40/7 89/39/7
f 89/42/5 87/45/5 92/44/5 93/43/5
f 97/46/5 96/49/5 95/48/5 98/47/5
f 94/50/3 98/53/3 95/52/3 93/51/3
f 88/27/3 96/28/3 97/20/3 90/54/3
f 126/10/5 123/31/5 18/32/5 5/9/5
f 112/55/3 100/57/3 106/56/3
f 125/58/5 33/59/5 11/24/5 137/25/5
f 87/30/3 111/61/3 104/60/3
f 138/62/5 36/63/5 33/59/5 125/58/5
f 91/64/8 97/67/8 98/66/8 94/65/8
f 100/68/5 107/71/5 109/70/5 106/69/5
f 108/72/8 104/75/8 111/74/8 110/73/8
f 104/76/5 108/77/5 92/44/5 87/45/5
f 112/78/5 113/81/5 110/80/5 111/79/5
f 109/82/3 108/85/3 110/84/3 113/83/3
f 103/86/3 105/87/3 112/55/3 111/61/3
f 124/88/5 28/89/5 36/63/5 138/62/5
f 106/39/7 109/38/7 113/41/7 112/40/7
f 86/90/6 80/93/6 114/92/6 118/91/6
f 80/17/5 84/18/5 117/96/5 132/95/5 114/94/5
f 84/18/2 82/19/2 116/35/2 117/96/2
f 144/97/9 38/100/9 28/99/9 124/98/9
f 79/101/6 86/90/6 118/91/6 115/102/6
f 101/26/3 103/86/3 111/61/3 87/30/3
f 105/87/3 99/103/3 100/57/3 112/55/3
f 90/54/3 97/20/3 82/12/3 81/11/3
f 139/104/5 123/31/5 126/10/5
f 143/1/6 141/2/6 119/105/6 121/13/6
f 141/106/5 130/110/5 140/109/5 127/7/5 136/108/5 119/107/5
f 140/109/2 139/104/2 126/10/2 127/7/2
f 142/111/6 143/1/6 121/13/6 120/14/6
f 130/110/5 132/94/5 117/96/5 140/109/5
f 69/112/5 136/107/5 127/7/5 8/8/5
f 142/111/3 129/111/3 128/1/3 143/1/3
f 119/105/1 136/105/1 134/13/1 121/13/1
f 133/91/6 132/92/6 130/2/6 128/1/6
f 131/102/6 133/91/6 128/1/6 129/111/6
f 134/13/6 136/105/6 69/113/6 66/34/6
f 114/92/1 132/92/1 133/91/1 118/91/1
f 117/96/2 116/35/2 139/104/2 140/109/2
f 118/91/1 133/91/1 131/102/1 115/102/1
f 93/43/5 92/44/5 137/25/5 122/22/5
f 94/36/5 93/43/5 122/22/5 123/31/5
f 116/35/5 94/36/5 123/31/5 139/104/5
f 108/77/5 125/58/5 137/25/5 92/44/5
f 109/70/5 138/62/5 125/58/5 108/77/5
f 107/71/5 124/88/5 138/62/5 109/70/5
f 102/114/9 144/97/9 124/98/9 107/115/9
f 99/116/12 102/114/12 107/115/12 100/117/12
f 203/1/1 190/1/1 191/2/1 202/2/1
f 6/3/1 150/6/1 151/5/1 1/4/1
f 189/7/13 188/10/13 147/9/13 149/8/13
f 3/11/1 146/12/1 150/6/1 6/3/1
f 183/13/3 194/13/3 68/14/3 51/14/3
f 150/15/14 148/18/14 145/17/14 151/16/14
f 146/19/14 148/18/14 150/15/14
f 163/20/1 156/21/1 146/12/1
f 184/22/15 198/25/15 152/24/15 155/23/15
f 29/26/1 153/30/1 154/29/1 162/28/1 13/27/1
f 185/31/15 184/22/15 155/23/15 157/32/15
f 68/14/6 194/13/6 195/34/6 67/33/6
f 146/19/15 156/37/15 160/36/15 179/35/15
f 159/38/16 161/41/16 162/40/16 154/39/16
f 154/42/15 153/45/15 158/44/15 159/43/15
f 163/46/15 162/49/15 161/48/15 164/47/15
f 160/50/1 164/53/1 161/52/1 159/51/1
f 13/27/1 162/28/1 163/20/1 16/54/1
f 188/10/15 185/31/15 157/32/15 147/9/15
f 176/55/1 165/57/1 169/56/1
f 187/58/15 168/59/15 152/24/15 198/25/15
f 153/30/1 175/61/1 167/60/1
f 199/62/15 170/63/15 168/59/15 187/58/15
f 156/64/17 163/67/17 164/66/17 160/65/17
f 165/68/15 171/71/15 173/70/15 169/69/15
f 172/72/17 167/75/17 175/74/17 174/73/17
f 167/76/15 172/77/15 158/44/15 153/45/15
f 176/78/15 177/81/15 174/80/15 175/79/15
f 173/82/1 172/85/1 174/84/1 177/83/1
f 31/86/1 34/87/1 176/55/1 175/61/1
f 186/88/15 166/89/15 170/63/15 199/62/15
f 169/39/16 173/38/16 177/41/16 176/40/16
f 151/90/6 145/93/6 178/92/6 181/91/6
f 145/17/15 148/18/15 180/96/15 192/95/15 178/94/15
f 148/18/13 146/19/13 179/35/13 180/96/13
f 78/97/18 38/100/18 166/99/18 186/98/18
f 1/101/6 151/90/6 181/91/6 46/102/6
f 29/26/1 31/86/1 175/61/1 153/30/1
f 34/87/1 26/103/1 165/57/1 176/55/1
f 16/54/1 163/20/1 146/12/1 3/11/1
f 200/104/15 185/31/15 188/10/15
f 203/1/6 202/2/6 182/105/6 183/13/6
f 202/106/15 191/110/15 201/109/15 189/7/15 197/108/15 182/107/15
f 201/109/13 200/104/13 188/10/13 189/7/13
f 76/111/6 203/1/6 183/13/6 51/14/6
f 191/110/15 192/94/15 180/96/15 201/109/15
f 196/112/15 197/107/15 189/7/15 149/8/15
f 76/111/1 60/111/1 190/1/1 203/1/1
f 182/105/3 197/105/3 194/13/3 183/13/3
f 193/91/6 192/92/6 191/2/6 190/1/6
f 62/102/6 193/91/6 190/1/6 60/111/6
f 194/13/6 197/105/6 196/113/6 195/34/6
f 178/92/3 192/92/3 193/91/3 181/91/3
f 180/96/13 179/35/13 200/104/13 201/109/13
f 181/91/3 193/91/3 62/102/3 46/102/3
f 159/43/15 158/44/15 198/25/15 184/22/15
f 160/36/15 159/43/15 184/22/15 185/31/15
f 179/35/15 160/36/15 185/31/15 200/104/15
f 172/77/15 187/58/15 198/25/15 158/44/15
f 173/70/15 199/62/15 187/58/15 172/77/15
f 171/71/15 186/88/15 199/62/15 173/70/15
f 30/114/18 78/97/18 186/98/18 171/115/18
f 26/116/19 30/114/19 171/115/19 165/117/19
f 252/1/3 251/2/3 242/2/3 241/1/3
f 83/3/3 79/4/3 208/5/3 207/6/3
f 240/7/13 149/8/13 147/9/13 239/10/13
f 81/11/3 83/3/3 207/6/3 205/12/3
f 234/13/1 120/14/1 135/14/1 245/13/1
f 207/15/20 208/16/20 204/17/20 206/18/20
f 205/19/20 207/15/20 206/18/20
f 217/20/3 205/12/3 211/21/3
f 235/22/15 155/23/15 152/24/15 247/25/15
f 101/26/3 88/27/3 216/28/3 210/29/3 209/30/3
f 236/31/15 157/32/15 155/23/15 235/22/15
f 135/14/6 67/33/6 195/34/6 245/13/6
f 205/19/15 230/35/15 214/36/15 211/37/15
f 213/38/16 210/39/16 216/40/16 215/41/16
f 210/42/15 213/43/15 212/44/15 209/45/15
f 217/46/15 218/47/15 215/48/15 216/49/15
f 214/50/3 213/51/3 215/52/3 218/53/3
f 88/27/3 90/54/3 217/20/3 216/28/3
f 239/10/15 147/9/15 157/32/15 236/31/15
f 227/55/3 221/56/3 219/57/3
f 238/58/15 247/25/15 152/24/15 168/59/15
f 209/30/3 220/60/3 226/61/3
f 248/62/15 238/58/15 168/59/15 170/63/15
f 211/64/17 214/65/17 218/66/17 217/67/17
f 219/68/15 221/69/15 224/70/15 222/71/15
f 223/72/17 225/73/17 226/74/17 220/75/17
f 220/76/15 209/45/15 212/44/15 223/77/15
f 227/78/15 226/79/15 225/80/15 228/81/15
f 224/82/3 228/83/3 225/84/3 223/85/3
f 103/86/3 226/61/3 227/55/3 105/87/3
f 237/88/15 248/62/15 170/63/15 166/89/15
f 221/39/16 227/40/16 228/41/16 224/38/16
f 208/90/6 232/91/6 229/92/6 204/93/6
f 204/17/15 229/94/15 243/95/15 231/96/15 206/18/15
f 206/18/13 231/96/13 230/35/13 205/19/13
f 144/97/18 237/98/18 166/99/18 38/100/18
f 79/101/6 115/102/6 232/91/6 208/90/6
f 101/26/3 209/30/3 226/61/3 103/86/3
f 105/87/3 227/55/3 219/57/3 99/103/3
f 90/54/3 81/11/3 205/12/3 217/20/3
f 249/104/15 239/10/15 236/31/15
f 252/1/6 234/13/6 233/105/6 251/2/6
f 251/106/15 233/107/15 246/108/15 240/7/15 250/109/15 242/110/15
f 250/109/13 240/7/13 239/10/13 249/104/13
f 142/111/6 120/14/6 234/13/6 252/1/6
f 242/110/15 250/109/15 231/96/15 243/94/15
f 196/112/15 149/8/15 240/7/15 246/107/15
f 142/111/3 252/1/3 241/1/3 129/111/3
f 233/105/1 234/13/1 245/13/1 246/105/1
f 244/91/6 241/1/6 242/2/6 243/92/6
f 131/102/6 129/111/6 241/1/6 244/91/6
f 245/13/6 195/34/6 196/113/6 246/105/6
f 229/92/1 232/91/1 244/91/1 243/92/1
f 231/96/13 250/109/13 249/104/13 230/35/13
f 232/91/1 115/102/1 131/102/1 244/91/1
f 213/43/15 235/22/15 247/25/15 212/44/15
f 214/36/15 236/31/15 235/22/15 213/43/15
f 230/35/15 249/104/15 236/31/15 214/36/15
f 223/77/15 212/44/15 247/25/15 238/58/15
f 224/70/15 223/77/15 238/58/15 248/62/15
f 222/71/15 224/70/15 248/62/15 237/88/15
f 102/114/18 222/115/18 237/98/18 144/97/18
f 99/116/21 219/117/21 222/115/21 102/114/21
